<svg width="176" height="45" viewBox="0 0 176 45" fill="none" xmlns="http://www.w3.org/2000/svg">
<path d="M15.475 21.275V24H2.35V6.5H15.125V9.225H5.6V13.775H14.05V16.45H5.6V21.275H15.475ZM17.6348 15.75H24.5098V18.35H17.6348V15.75ZM43.2381 24.25C41.4714 24.25 39.8714 23.8667 38.4381 23.1C37.0214 22.3167 35.9048 21.2417 35.0881 19.875C34.2881 18.5083 33.8881 16.9667 33.8881 15.25C33.8881 13.5333 34.2964 11.9917 35.1131 10.625C35.9298 9.25833 37.0464 8.19167 38.4631 7.425C39.8964 6.64167 41.4964 6.25 43.2631 6.25C44.6964 6.25 46.0048 6.5 47.1881 7C48.3714 7.5 49.3714 8.225 50.1881 9.175L48.0881 11.15C46.8214 9.78333 45.2631 9.1 43.4131 9.1C42.2131 9.1 41.1381 9.36667 40.1881 9.9C39.2381 10.4167 38.4964 11.1417 37.9631 12.075C37.4298 13.0083 37.1631 14.0667 37.1631 15.25C37.1631 16.4333 37.4298 17.4917 37.9631 18.425C38.4964 19.3583 39.2381 20.0917 40.1881 20.625C41.1381 21.1417 42.2131 21.4 43.4131 21.4C45.2631 21.4 46.8214 20.7083 48.0881 19.325L50.1881 21.325C49.3714 22.275 48.3631 23 47.1631 23.5C45.9798 24 44.6714 24.25 43.2381 24.25ZM58.5139 24.175C57.1639 24.175 55.9472 23.8833 54.8639 23.3C53.7805 22.7167 52.9305 21.9083 52.3139 20.875C51.7139 19.825 51.4139 18.6417 51.4139 17.325C51.4139 16.0083 51.7139 14.8333 52.3139 13.8C52.9305 12.7667 53.7805 11.9583 54.8639 11.375C55.9472 10.7917 57.1639 10.5 58.5139 10.5C59.8805 10.5 61.1055 10.7917 62.1889 11.375C63.2722 11.9583 64.1139 12.7667 64.7139 13.8C65.3305 14.8333 65.6389 16.0083 65.6389 17.325C65.6389 18.6417 65.3305 19.825 64.7139 20.875C64.1139 21.9083 63.2722 22.7167 62.1889 23.3C61.1055 23.8833 59.8805 24.175 58.5139 24.175ZM58.5139 21.5C59.6639 21.5 60.6139 21.1167 61.3639 20.35C62.1139 19.5833 62.4889 18.575 62.4889 17.325C62.4889 16.075 62.1139 15.0667 61.3639 14.3C60.6139 13.5333 59.6639 13.15 58.5139 13.15C57.3639 13.15 56.4139 13.5333 55.6639 14.3C54.9305 15.0667 54.5639 16.075 54.5639 17.325C54.5639 18.575 54.9305 19.5833 55.6639 20.35C56.4139 21.1167 57.3639 21.5 58.5139 21.5ZM85.4771 10.5C87.1605 10.5 88.4938 10.9917 89.4772 11.975C90.4605 12.9417 90.9521 14.4 90.9521 16.35V24H87.8271V16.75C87.8271 15.5833 87.5688 14.7083 87.0522 14.125C86.5355 13.525 85.7938 13.225 84.8271 13.225C83.7771 13.225 82.9355 13.575 82.3021 14.275C81.6688 14.9583 81.3521 15.9417 81.3521 17.225V24H78.2271V16.75C78.2271 15.5833 77.9688 14.7083 77.4521 14.125C76.9355 13.525 76.1938 13.225 75.2271 13.225C74.1605 13.225 73.3105 13.5667 72.6771 14.25C72.0605 14.9333 71.7521 15.925 71.7521 17.225V24H68.6271V10.65H71.6021V12.35C72.1021 11.75 72.7271 11.2917 73.4771 10.975C74.2271 10.6583 75.0605 10.5 75.9771 10.5C76.9771 10.5 77.8605 10.6917 78.6271 11.075C79.4105 11.4417 80.0271 11.9917 80.4771 12.725C81.0271 12.025 81.7355 11.4833 82.6021 11.1C83.4688 10.7 84.4271 10.5 85.4771 10.5ZM111.796 10.5C113.479 10.5 114.812 10.9917 115.796 11.975C116.779 12.9417 117.271 14.4 117.271 16.35V24H114.146V16.75C114.146 15.5833 113.887 14.7083 113.371 14.125C112.854 13.525 112.112 13.225 111.146 13.225C110.096 13.225 109.254 13.575 108.621 14.275C107.987 14.9583 107.671 15.9417 107.671 17.225V24H104.546V16.75C104.546 15.5833 104.287 14.7083 103.771 14.125C103.254 13.525 102.512 13.225 101.546 13.225C100.479 13.225 99.6288 13.5667 98.9955 14.25C98.3788 14.9333 98.0705 15.925 98.0705 17.225V24H94.9455V10.65H97.9205V12.35C98.4205 11.75 99.0455 11.2917 99.7955 10.975C100.546 10.6583 101.379 10.5 102.296 10.5C103.296 10.5 104.179 10.6917 104.946 11.075C105.729 11.4417 106.346 11.9917 106.796 12.725C107.346 12.025 108.054 11.4833 108.921 11.1C109.787 10.7 110.746 10.5 111.796 10.5ZM133.936 17.4C133.936 17.6167 133.919 17.925 133.886 18.325H123.411C123.594 19.3083 124.069 20.0917 124.836 20.675C125.619 21.2417 126.586 21.525 127.736 21.525C129.203 21.525 130.411 21.0417 131.361 20.075L133.036 22C132.436 22.7167 131.678 23.2583 130.761 23.625C129.844 23.9917 128.811 24.175 127.661 24.175C126.194 24.175 124.903 23.8833 123.786 23.3C122.669 22.7167 121.803 21.9083 121.186 20.875C120.586 19.825 120.286 18.6417 120.286 17.325C120.286 16.025 120.578 14.8583 121.161 13.825C121.761 12.775 122.586 11.9583 123.636 11.375C124.686 10.7917 125.869 10.5 127.186 10.5C128.486 10.5 129.644 10.7917 130.661 11.375C131.694 11.9417 132.494 12.75 133.061 13.8C133.644 14.8333 133.936 16.0333 133.936 17.4ZM127.186 13C126.186 13 125.336 13.3 124.636 13.9C123.953 14.4833 123.536 15.2667 123.386 16.25H130.961C130.828 15.2833 130.419 14.5 129.736 13.9C129.053 13.3 128.203 13 127.186 13ZM139.913 12.6C140.813 11.2 142.396 10.5 144.663 10.5V13.475C144.396 13.425 144.154 13.4 143.938 13.4C142.721 13.4 141.771 13.7583 141.088 14.475C140.404 15.175 140.063 16.1917 140.063 17.525V24H136.938V10.65H139.913V12.6ZM153.317 24.175C151.933 24.175 150.692 23.8833 149.592 23.3C148.492 22.7167 147.633 21.9083 147.017 20.875C146.4 19.825 146.092 18.6417 146.092 17.325C146.092 16.0083 146.4 14.8333 147.017 13.8C147.633 12.7667 148.483 11.9583 149.567 11.375C150.667 10.7917 151.917 10.5 153.317 10.5C154.633 10.5 155.783 10.7667 156.767 11.3C157.767 11.8333 158.517 12.6 159.017 13.6L156.617 15C156.233 14.3833 155.75 13.925 155.167 13.625C154.6 13.3083 153.975 13.15 153.292 13.15C152.125 13.15 151.158 13.5333 150.392 14.3C149.625 15.05 149.242 16.0583 149.242 17.325C149.242 18.5917 149.617 19.6083 150.367 20.375C151.133 21.125 152.108 21.5 153.292 21.5C153.975 21.5 154.6 21.35 155.167 21.05C155.75 20.7333 156.233 20.2667 156.617 19.65L159.017 21.05C158.5 22.05 157.742 22.825 156.742 23.375C155.758 23.9083 154.617 24.175 153.317 24.175ZM174.073 17.4C174.073 17.6167 174.056 17.925 174.023 18.325H163.548C163.731 19.3083 164.206 20.0917 164.973 20.675C165.756 21.2417 166.723 21.525 167.873 21.525C169.339 21.525 170.548 21.0417 171.498 20.075L173.173 22C172.573 22.7167 171.814 23.2583 170.898 23.625C169.981 23.9917 168.948 24.175 167.798 24.175C166.331 24.175 165.039 23.8833 163.923 23.3C162.806 22.7167 161.939 21.9083 161.323 20.875C160.723 19.825 160.423 18.6417 160.423 17.325C160.423 16.025 160.714 14.8583 161.298 13.825C161.898 12.775 162.723 11.9583 163.773 11.375C164.823 10.7917 166.006 10.5 167.323 10.5C168.623 10.5 169.781 10.7917 170.798 11.375C171.831 11.9417 172.631 12.75 173.198 13.8C173.781 14.8333 174.073 16.0333 174.073 17.4ZM167.323 13C166.323 13 165.473 13.3 164.773 13.9C164.089 14.4833 163.673 15.2667 163.523 16.25H171.098C170.964 15.2833 170.556 14.5 169.873 13.9C169.189 13.3 168.339 13 167.323 13Z" fill="#4581F7"/>
<path d="M134.521 32.9L131.505 42H129.711L127.462 35.266L125.174 42H123.367L120.351 32.9H122.106L124.368 39.816L126.721 32.9H128.281L130.582 39.855L132.909 32.9H134.521ZM141.747 38.568C141.747 38.6807 141.739 38.841 141.721 39.049H136.274C136.37 39.5603 136.617 39.9677 137.015 40.271C137.423 40.5657 137.925 40.713 138.523 40.713C139.286 40.713 139.914 40.4617 140.408 39.959L141.279 40.96C140.967 41.3327 140.573 41.6143 140.096 41.805C139.62 41.9957 139.082 42.091 138.484 42.091C137.722 42.091 137.05 41.9393 136.469 41.636C135.889 41.3327 135.438 40.9123 135.117 40.375C134.805 39.829 134.649 39.2137 134.649 38.529C134.649 37.853 134.801 37.2463 135.104 36.709C135.416 36.163 135.845 35.7383 136.391 35.435C136.937 35.1317 137.553 34.98 138.237 34.98C138.913 34.98 139.516 35.1317 140.044 35.435C140.582 35.7297 140.998 36.15 141.292 36.696C141.596 37.2333 141.747 37.8573 141.747 38.568ZM138.237 36.28C137.717 36.28 137.275 36.436 136.911 36.748C136.556 37.0513 136.339 37.4587 136.261 37.97H140.2C140.131 37.4673 139.919 37.06 139.563 36.748C139.208 36.436 138.766 36.28 138.237 36.28ZM147.156 34.98C147.832 34.98 148.435 35.1273 148.963 35.422C149.501 35.7167 149.921 36.1327 150.224 36.67C150.528 37.2073 150.679 37.827 150.679 38.529C150.679 39.231 150.528 39.855 150.224 40.401C149.921 40.9383 149.501 41.3543 148.963 41.649C148.435 41.9437 147.832 42.091 147.156 42.091C146.68 42.091 146.242 42.0087 145.843 41.844C145.453 41.6793 145.124 41.4323 144.855 41.103V42H143.308V32.354H144.933V35.903C145.211 35.5997 145.536 35.37 145.908 35.214C146.29 35.058 146.706 34.98 147.156 34.98ZM146.974 40.7C147.572 40.7 148.062 40.5007 148.443 40.102C148.833 39.7033 149.028 39.179 149.028 38.529C149.028 37.879 148.833 37.3547 148.443 36.956C148.062 36.5573 147.572 36.358 146.974 36.358C146.584 36.358 146.233 36.449 145.921 36.631C145.609 36.8043 145.362 37.0557 145.18 37.385C144.998 37.7143 144.907 38.0957 144.907 38.529C144.907 38.9623 144.998 39.3437 145.18 39.673C145.362 40.0023 145.609 40.258 145.921 40.44C146.233 40.6133 146.584 40.7 146.974 40.7ZM154.365 42.091C153.802 42.091 153.252 42.0173 152.714 41.87C152.177 41.7227 151.748 41.5363 151.427 41.311L152.051 40.076C152.363 40.284 152.736 40.453 153.169 40.583C153.611 40.7043 154.045 40.765 154.469 40.765C155.44 40.765 155.925 40.5093 155.925 39.998C155.925 39.7553 155.8 39.5863 155.548 39.491C155.306 39.3957 154.911 39.3047 154.365 39.218C153.793 39.1313 153.325 39.0317 152.961 38.919C152.606 38.8063 152.294 38.6113 152.025 38.334C151.765 38.048 151.635 37.6537 151.635 37.151C151.635 36.4923 151.908 35.968 152.454 35.578C153.009 35.1793 153.754 34.98 154.69 34.98C155.167 34.98 155.644 35.0363 156.12 35.149C156.597 35.253 156.987 35.396 157.29 35.578L156.666 36.813C156.077 36.4663 155.414 36.293 154.677 36.293C154.201 36.293 153.837 36.3667 153.585 36.514C153.343 36.6527 153.221 36.839 153.221 37.073C153.221 37.333 153.351 37.5193 153.611 37.632C153.88 37.736 154.292 37.8357 154.846 37.931C155.401 38.0177 155.856 38.1173 156.211 38.23C156.567 38.3427 156.87 38.5333 157.121 38.802C157.381 39.0707 157.511 39.452 157.511 39.946C157.511 40.596 157.23 41.116 156.666 41.506C156.103 41.896 155.336 42.091 154.365 42.091ZM158.911 35.058H160.536V42H158.911V35.058ZM159.73 33.914C159.435 33.914 159.188 33.823 158.989 33.641C158.789 33.4503 158.69 33.2163 158.69 32.939C158.69 32.6617 158.789 32.432 158.989 32.25C159.188 32.0593 159.435 31.964 159.73 31.964C160.024 31.964 160.271 32.055 160.471 32.237C160.67 32.4103 160.77 32.6313 160.77 32.9C160.77 33.186 160.67 33.4287 160.471 33.628C160.28 33.8187 160.033 33.914 159.73 33.914ZM166.842 41.623C166.651 41.779 166.417 41.896 166.14 41.974C165.871 42.052 165.585 42.091 165.282 42.091C164.519 42.091 163.93 41.8917 163.514 41.493C163.098 41.0943 162.89 40.5137 162.89 39.751V36.41H161.746V35.11H162.89V33.524H164.515V35.11H166.374V36.41H164.515V39.712C164.515 40.05 164.597 40.31 164.762 40.492C164.926 40.6653 165.165 40.752 165.477 40.752C165.841 40.752 166.144 40.6567 166.387 40.466L166.842 41.623ZM174.476 38.568C174.476 38.6807 174.467 38.841 174.45 39.049H169.003C169.098 39.5603 169.345 39.9677 169.744 40.271C170.151 40.5657 170.654 40.713 171.252 40.713C172.014 40.713 172.643 40.4617 173.137 39.959L174.008 40.96C173.696 41.3327 173.301 41.6143 172.825 41.805C172.348 41.9957 171.811 42.091 171.213 42.091C170.45 42.091 169.778 41.9393 169.198 41.636C168.617 41.3327 168.166 40.9123 167.846 40.375C167.534 39.829 167.378 39.2137 167.378 38.529C167.378 37.853 167.529 37.2463 167.833 36.709C168.145 36.163 168.574 35.7383 169.12 35.435C169.666 35.1317 170.281 34.98 170.966 34.98C171.642 34.98 172.244 35.1317 172.773 35.435C173.31 35.7297 173.726 36.15 174.021 36.696C174.324 37.2333 174.476 37.8573 174.476 38.568ZM170.966 36.28C170.446 36.28 170.004 36.436 169.64 36.748C169.284 37.0513 169.068 37.4587 168.99 37.97H172.929C172.859 37.4673 172.647 37.06 172.292 36.748C171.936 36.436 171.494 36.28 170.966 36.28Z" fill="#4581F7"/>
</svg>
