<svg width="55" height="52" viewBox="0 0 55 52" fill="none" xmlns="http://www.w3.org/2000/svg">
<path d="M27.1306 51.7725C38.0884 51.7725 46.9715 42.6887 46.9715 31.4833C46.9715 20.278 38.0884 11.1942 27.1306 11.1942C16.1727 11.1942 7.28958 20.278 7.28958 31.4833C7.28958 42.6887 16.1727 51.7725 27.1306 51.7725Z" fill="#FFB6B6"/>
<path d="M44.5059 16.6077C44.5059 16.6077 49.6952 6.4631 38.2785 5.54085C38.2785 5.54085 28.5456 -3.48754 18.6252 3.89032C18.6252 3.89032 13.214 3.89033 10.255 10.152C10.255 10.152 5.9991 8.50149 5.06385 12.9187C5.06385 12.9187 1.9497 22.1411 5.06385 30.4412C8.17799 38.7413 9.21238 39.6635 9.21238 39.6635C9.21238 39.6635 4.09519 22.2619 16.5509 21.3397C29.0065 20.4174 42.9448 12.4576 43.9828 22.6022C45.0208 32.7467 46.5829 35.2463 46.5829 35.2463C46.5829 35.2463 56.442 20.7578 44.5059 16.6077Z" fill="#2F2E41"/>
<path d="M51.1916 30.3747H49.7396C49.7396 19.1495 38.8755 11.7937 27.9157 11.7877C26.3216 11.7829 24.7309 11.9411 23.1676 12.2599C21.4077 12.6192 19.5811 13.0498 17.7864 13.6111C10.7092 15.8294 4.14608 20.1176 4.14608 30.3747C4.14457 32.3667 4.39247 34.3507 4.88371 36.2784L3.47816 36.6526C2.95682 34.6026 2.69333 32.4929 2.69406 30.3747C2.69406 21.4123 6.29218 15.2563 12.5068 11.5858C15.7739 9.65551 19.7611 8.41123 24.3292 7.80542C26.2301 7.54681 28.1519 7.48711 30.0647 7.62724C42.6682 8.55376 51.1916 18.4367 51.1916 30.3747Z" fill="#608AF5"/>
<path d="M53.6107 31.1973L53.0386 26.8735C52.8975 25.7816 52.3831 24.7759 51.5866 24.0345C51.0752 23.5512 50.4631 23.1931 49.7964 22.9873C49.1298 22.7815 48.4262 22.7334 47.7387 22.8466L46.8297 22.9743C46.581 23.0078 46.3413 23.0915 46.1244 23.2204C45.9076 23.3494 45.7179 23.5211 45.5665 23.7257C45.4137 23.9295 45.302 24.1622 45.2377 24.4105C45.1734 24.6587 45.1578 24.9175 45.1919 25.1719L46.5132 35.1321C46.5676 35.538 46.7456 35.9162 47.0218 36.213C47.298 36.5099 47.6585 36.7104 48.0523 36.7862C48.169 36.8101 48.2877 36.822 48.4066 36.8218C48.4921 36.8218 48.5775 36.8158 48.6622 36.804L49.6786 36.6644C50.2983 36.5803 50.8946 36.3675 51.431 36.0392C51.9674 35.7108 52.4324 35.2738 52.7976 34.7549C52.876 34.6421 52.9515 34.5263 53.0212 34.4075C53.5655 33.4358 53.7732 32.3047 53.6107 31.1973Z" fill="#608AF5"/>
<path d="M46.2431 23.1555C45.9765 23.288 45.7446 23.4834 45.5665 23.7257C45.4137 23.9295 45.302 24.1623 45.2377 24.4105C45.1734 24.6587 45.1578 24.9175 45.1919 25.1719L46.5132 35.1321C46.5676 35.538 46.7456 35.9162 47.0218 36.2131C47.298 36.5099 47.6585 36.7104 48.0523 36.7862L46.2431 23.1555Z" fill="white"/>
<path d="M53.6107 31.1973L53.0386 26.8735C52.8975 25.7816 52.3831 24.7759 51.5865 24.0345L52.9021 33.9442C52.9218 34.1033 52.9618 34.259 53.0211 34.4075C53.5654 33.4358 53.7732 32.3047 53.6107 31.1973Z" fill="#3F3D56"/>
<path d="M49.0892 34.3126C49.4865 34.2575 49.6862 33.2906 49.5353 32.153C49.3844 31.0153 48.94 30.1378 48.5426 30.1929C48.1453 30.248 47.9456 31.2149 48.0965 32.3526C48.2474 33.4902 48.6918 34.3678 49.0892 34.3126Z" fill="#3F3D56"/>
<path d="M48.218 28.9673C48.6153 28.9122 48.815 27.9453 48.6641 26.8076C48.5132 25.67 48.0687 24.7924 47.6714 24.8475C47.2741 24.9027 47.0743 25.8696 47.2253 27.0072C47.3762 28.1449 47.8206 29.0224 48.218 28.9673Z" fill="#3F3D56"/>
<path d="M53.7356 31.0461C54.133 30.9909 54.3327 30.024 54.1818 28.8864C54.0309 27.7487 53.5864 26.8712 53.1891 26.9263C52.7918 26.9814 52.592 27.9483 52.7429 29.086C52.8939 30.2236 53.3383 31.1012 53.7356 31.0461Z" fill="#3F3D56"/>
<path d="M27.9157 11.7877C26.3216 11.7829 24.731 11.9411 23.1676 12.2599C21.4077 12.6192 19.5811 13.0498 17.7864 13.6111C14.984 13.4715 12.9221 12.7291 12.5068 11.5858C15.7739 9.6555 19.7611 8.41122 24.3292 7.80541C26.2301 7.5468 28.1519 7.4871 30.0647 7.62723C30.2672 7.74862 30.4423 7.91245 30.5784 8.10797C30.7145 8.30349 30.8087 8.52626 30.8546 8.76163C30.9911 9.79508 29.8382 10.8938 27.9157 11.7877Z" fill="#3F3D56"/>
<path d="M9.37627 40.6794L7.14016 31.1736C7.06042 30.8306 6.88337 30.5194 6.63123 30.279C6.37909 30.0386 6.06312 29.8797 5.72299 29.8224C5.6269 29.8071 5.52983 29.7991 5.43258 29.7986C5.2956 29.7991 5.15913 29.816 5.02601 29.8491L4.16061 30.0629C3.04637 30.3385 2.08455 31.0548 1.48621 32.0547C0.887865 33.0546 0.701886 34.2564 0.969066 35.3964L1.97096 39.6608C2.19972 40.6647 2.74454 41.5641 3.52172 42.2206C3.64766 42.3246 3.77955 42.4208 3.91667 42.5087C4.40346 42.8207 4.94643 43.0298 5.51354 43.1236C6.08065 43.2175 6.66041 43.1942 7.21857 43.0551L8.08107 42.8413C8.30913 42.7869 8.52369 42.6848 8.71125 42.5414C8.99016 42.3334 9.20231 42.0454 9.32072 41.7138C9.43914 41.3823 9.45848 41.0222 9.37627 40.6794Z" fill="#608AF5"/>
<path d="M4.68848 38.9107C5.07832 38.8148 5.18141 37.8321 4.91874 36.7159C4.65607 35.5997 4.1271 34.7727 3.73727 34.8686C3.34743 34.9645 3.24434 35.9471 3.50701 37.0633C3.76968 38.1795 4.29865 39.0066 4.68848 38.9107Z" fill="#3F3D56"/>
<path d="M1.78443 39.8016C2.17427 39.7057 2.27735 38.723 2.01468 37.6068C1.75201 36.4906 1.22305 35.6636 0.833212 35.7595C0.443375 35.8554 0.340287 36.838 0.602958 37.9542C0.86563 39.0704 1.39459 39.8975 1.78443 39.8016Z" fill="#3F3D56"/>
<path d="M9.51856 40.6437L7.28246 31.1379C7.19533 30.7668 7.00311 30.4303 6.72985 30.1704C6.45659 29.9105 6.11443 29.7388 5.74622 29.6768L8.79837 42.6601C9.09979 42.4344 9.32907 42.1224 9.45725 41.7635C9.58542 41.4047 9.60676 41.015 9.51856 40.6437Z" fill="white"/>
<path d="M1.47438 33.5136C1.41266 33.2493 1.29686 33.0013 1.1346 32.7861C0.820262 33.6185 0.762506 34.5294 0.969074 35.3964L1.97097 39.6608C2.19972 40.6647 2.74455 41.5641 3.52172 42.2206L1.47438 33.5136Z" fill="#3F3D56"/>
</svg>
